<mxfile host="app.diagrams.net" agent="Mozilla/5.0 (Windows NT 10.0; Win64; x64) AppleWebKit/537.36 (KHTML, like Gecko) Chrome/141.0.0.0 Safari/537.36 Edg/141.0.0.0" version="28.2.7">
  <diagram name="Page-1" id="J03AhKk9brJRuuLDbx7k">
    <mxGraphModel dx="2276" dy="866" grid="1" gridSize="10" guides="1" tooltips="1" connect="1" arrows="1" fold="1" page="1" pageScale="1" pageWidth="850" pageHeight="1100" math="0" shadow="0">
      <root>
        <mxCell id="0" />
        <mxCell id="1" parent="0" />
        <mxCell id="q30I01LduNnARRFr0o7E-13" value="" style="rounded=0;whiteSpace=wrap;html=1;" vertex="1" parent="1">
          <mxGeometry x="-220" y="210" width="410" height="230" as="geometry" />
        </mxCell>
        <mxCell id="q30I01LduNnARRFr0o7E-2" value="" style="rounded=0;whiteSpace=wrap;html=1;" vertex="1" parent="1">
          <mxGeometry x="-180" y="275" width="90" height="120" as="geometry" />
        </mxCell>
        <mxCell id="q30I01LduNnARRFr0o7E-1" value="" style="shape=image;html=1;verticalAlign=top;verticalLabelPosition=bottom;labelBackgroundColor=#ffffff;imageAspect=0;aspect=fixed;image=https://icons.diagrams.net/icon-cache1/Bootstrap_Vol_3-2297/filetype-csv-882.svg" vertex="1" parent="1">
          <mxGeometry x="-160" y="320" width="50" height="50" as="geometry" />
        </mxCell>
        <mxCell id="q30I01LduNnARRFr0o7E-3" value="Data Source" style="text;html=1;whiteSpace=wrap;strokeColor=none;fillColor=none;align=center;verticalAlign=middle;rounded=0;" vertex="1" parent="1">
          <mxGeometry x="-170" y="275" width="80" height="30" as="geometry" />
        </mxCell>
        <mxCell id="q30I01LduNnARRFr0o7E-5" value="" style="image;aspect=fixed;html=1;points=[];align=center;fontSize=12;image=img/lib/azure2/storage/Data_Lake_Storage_Gen1.svg;" vertex="1" parent="1">
          <mxGeometry x="80" y="309" width="64" height="52" as="geometry" />
        </mxCell>
        <mxCell id="q30I01LduNnARRFr0o7E-6" value="" style="endArrow=classic;html=1;rounded=0;" edge="1" parent="1">
          <mxGeometry width="50" height="50" relative="1" as="geometry">
            <mxPoint x="-50" y="334.5" as="sourcePoint" />
            <mxPoint x="80" y="334" as="targetPoint" />
            <Array as="points">
              <mxPoint x="-90" y="334.5" />
            </Array>
          </mxGeometry>
        </mxCell>
        <mxCell id="q30I01LduNnARRFr0o7E-7" value="ADL Gen 2" style="text;html=1;whiteSpace=wrap;strokeColor=none;fillColor=none;align=center;verticalAlign=middle;rounded=0;" vertex="1" parent="1">
          <mxGeometry x="72" y="380" width="80" height="30" as="geometry" />
        </mxCell>
        <mxCell id="q30I01LduNnARRFr0o7E-8" value="" style="image;aspect=fixed;html=1;points=[];align=center;fontSize=12;image=img/lib/azure2/general/Scheduler.svg;" vertex="1" parent="1">
          <mxGeometry x="-20" y="290" width="40" height="40" as="geometry" />
        </mxCell>
        <mxCell id="q30I01LduNnARRFr0o7E-9" value="" style="shape=image;html=1;verticalAlign=top;verticalLabelPosition=bottom;labelBackgroundColor=#ffffff;imageAspect=0;aspect=fixed;image=https://icons.diagrams.net/icon-cache1/Long_shadow_web_icons-2008/python-943.svg" vertex="1" parent="1">
          <mxGeometry x="-20" y="340" width="40" height="40" as="geometry" />
        </mxCell>
        <mxCell id="q30I01LduNnARRFr0o7E-15" value="Data Pipeline Achitecture" style="text;html=1;whiteSpace=wrap;strokeColor=none;fillColor=none;align=center;verticalAlign=middle;rounded=0;fontStyle=1;fontSize=14;" vertex="1" parent="1">
          <mxGeometry x="-100" y="220" width="180" height="30" as="geometry" />
        </mxCell>
      </root>
    </mxGraphModel>
  </diagram>
</mxfile>
